<svg id="Capa_1" enable-background="new 0 0 512 512" height="512" viewBox="0 0 512 512" width="512" xmlns="http://www.w3.org/2000/svg">
<g>
<path d="m311.488 206.488c-17.549 17.549-12.803 50.859 10.605 74.253 20.458 20.433 54.816 29.991 74.238 10.605 17.549-17.549 12.803-50.859-10.605-74.253-23.378-23.407-56.689-28.124-74.238-10.605zm42.429 42.429c-5.858 5.858-15.355 5.858-21.213 0s-5.858-15.355 0-21.213 15.355-5.858 21.213 0 5.858 15.356 0 21.213z"/>
<path d="m126.273 217.094c-23.408 23.394-28.154 56.704-10.605 74.253 19.64 19.603 54.111 9.498 74.238-10.605 23.408-23.394 28.154-56.704 10.605-74.253-19.496-19.459-53.64-10.015-74.238 10.605zm53.022 31.823c-5.858 5.858-15.355 5.858-21.213 0s-5.858-15.355 0-21.213 15.355-5.858 21.213 0 5.858 15.356 0 21.213z"/>
<path d="m256 46c-140.596 0-256 114.39-256 255 0 125.742 91.557 195 256 195s256-69.258 256-195c0-140.61-115.404-255-256-255zm-161.543 266.558c-29.238-29.238-24.492-81.577 10.605-116.675 35.039-35.054 87.363-39.888 116.66-10.605 29.238 29.238 24.492 81.577-10.605 116.675-32.745 32.715-85.376 41.961-116.66 10.605zm191.543 123.442h-60c-8.291 0-15-6.709-15-15s6.709-15 15-15h15v-35.728l-21.709-10.854c-7.412-3.706-10.4-12.715-6.709-20.127 3.721-7.397 12.744-10.371 20.127-6.709l23.291 11.646 23.291-11.646c7.441-3.691 16.406-.718 20.127 6.709 3.691 7.412.703 16.421-6.709 20.127l-21.709 10.854v35.728h15c8.291 0 15 6.709 15 15s-6.709 15-15 15zm131.543-123.442c-31.381 31.454-83.886 22.139-116.66-10.605-35.098-35.098-39.844-87.437-10.605-116.675 29.297-29.253 81.592-24.448 116.66 10.605 35.097 35.097 39.843 87.436 10.605 116.675z"/>
<path d="m406 16c-20.555 0-39.584 6.134-55.776 16.342 65.048 22.888 120.31 68.591 154.113 127.637 4.84-12.072 7.663-25.178 7.663-38.979 0-57.99-48.01-105-106-105z"/><path d="m7.663 159.979c33.803-59.046 89.065-104.749 154.113-127.637-16.192-10.208-35.221-16.342-55.776-16.342-57.99 0-106 47.01-106 105 0 13.801 2.823 26.907 7.663 38.979z"/></g>
</svg>