<svg xmlns="http://www.w3.org/2000/svg" xmlns:xlink="http://www.w3.org/1999/xlink" width="245" height="245" fill="none"  xmlns:v="https://vecta.io/nano"><circle cx="122.5" cy="122.5" r="121" stroke="url(#A)" stroke-width="3"/><path d="M60.559 154.176V159h-3.428v-14.219h5.674c1.087 0 2.047.202 2.881.606.84.397 1.488.967 1.943 1.709.462.735.693 1.572.693 2.509 0 1.387-.498 2.497-1.494 3.331-.99.826-2.35 1.24-4.082 1.24h-2.187zm0-2.647h2.246c.664 0 1.169-.166 1.514-.498.352-.332.527-.801.527-1.406 0-.664-.179-1.195-.537-1.592s-.846-.599-1.465-.605h-2.285v4.101zM75.842 159c-.117-.215-.221-.531-.312-.947-.606.761-1.452 1.142-2.539 1.142-.996 0-1.842-.299-2.539-.898-.697-.606-1.045-1.364-1.045-2.276 0-1.145.423-2.011 1.27-2.597s2.077-.879 3.691-.879h1.016v-.557c0-.97-.42-1.455-1.26-1.455-.781 0-1.172.384-1.172 1.153H69.66c0-1.023.433-1.853 1.299-2.491.872-.638 1.982-.957 3.33-.957s2.412.329 3.193.987 1.182 1.559 1.201 2.705v4.677c.013.97.163 1.713.449 2.227V159h-3.291zm-2.061-2.148c.41 0 .749-.088 1.016-.264.273-.176.469-.374.586-.596v-1.689h-.957c-1.146 0-1.719.514-1.719 1.543 0 .299.101.543.303.732.202.182.459.274.771.274zm10.801-2.461l1.758-5.957h3.525l-4.307 12.334-.186.449c-.612 1.367-1.693 2.051-3.242 2.051a5.15 5.15 0 0 1-1.358-.196v-2.353h.43c.462 0 .814-.069 1.055-.205.247-.131.43-.368.547-.713l.264-.703-3.672-10.664h3.516l1.67 5.957zm9.258-5.957l.108 1.24c.749-.957 1.755-1.436 3.017-1.436 1.335 0 2.236.531 2.705 1.592.716-1.061 1.751-1.592 3.105-1.592 2.142 0 3.243 1.296 3.301 3.887V159h-3.301v-6.67c0-.54-.091-.934-.273-1.182s-.514-.371-.996-.371c-.651 0-1.136.29-1.455.869l.01.137V159H96.76v-6.65c0-.554-.088-.954-.264-1.202s-.511-.371-1.006-.371c-.632 0-1.113.29-1.445.869V159h-3.291v-10.566h3.086zm19.228 10.761c-1.621 0-2.933-.481-3.935-1.445-1.003-.97-1.504-2.23-1.504-3.779v-.274c0-1.08.198-2.034.596-2.861.403-.827.989-1.465 1.757-1.914.769-.456 1.68-.684 2.735-.684 1.484 0 2.656.463 3.515 1.387.86.918 1.289 2.201 1.289 3.848v1.279h-6.542c.117.592.374 1.058.771 1.396s.911.508 1.543.508c1.042 0 1.855-.364 2.441-1.094l1.504 1.778c-.41.566-.993 1.019-1.748 1.357-.748.332-1.556.498-2.422.498zm-.371-8.418c-.963 0-1.536.638-1.718 1.914h3.32v-.253c.013-.528-.121-.935-.401-1.221-.28-.293-.68-.44-1.201-.44zm9.18-2.343l.107 1.24c.73-.957 1.735-1.436 3.018-1.436 1.1 0 1.921.329 2.461.987.547.657.83 1.647.849 2.968V159h-3.3v-6.67c0-.534-.108-.924-.323-1.172-.214-.254-.605-.381-1.171-.381-.645 0-1.123.254-1.436.762V159h-3.291v-10.566h3.086zm12.1-2.627v2.627h1.738v2.285h-1.738v4.834c0 .397.071.674.214.83s.427.234.85.234a4.83 4.83 0 0 0 .82-.058v2.353c-.592.189-1.211.283-1.855.283-1.133 0-1.97-.267-2.51-.8s-.81-1.345-.81-2.432v-5.244h-1.348v-2.285h1.348v-2.627h3.291zm7.636 7.832c0-1.068.176-2.012.528-2.832s.856-1.452 1.513-1.895c.658-.449 1.423-.674 2.295-.674 1.1 0 1.96.371 2.578 1.114l.118-.918h2.988V158.6c0 .931-.218 1.738-.654 2.421-.43.691-1.055 1.218-1.875 1.583-.821.371-1.771.556-2.852.556-.775 0-1.527-.146-2.256-.439-.723-.293-1.276-.674-1.66-1.143l1.377-1.933c.612.722 1.419 1.084 2.422 1.084 1.458 0 2.187-.749 2.187-2.247v-.332c-.631.697-1.429 1.045-2.392 1.045-1.289 0-2.331-.491-3.125-1.474-.795-.99-1.192-2.311-1.192-3.965v-.117zm3.301.205c0 .866.163 1.552.488 2.06a1.54 1.54 0 0 0 1.368.752c.709 0 1.227-.237 1.552-.713V151.5c-.319-.482-.83-.723-1.533-.723-.586 0-1.045.264-1.377.791-.332.521-.498 1.28-.498 2.276zm8.174-.225c0-1.055.205-1.992.615-2.812.41-.827.999-1.462 1.768-1.905s1.67-.664 2.705-.664c1.582 0 2.829.492 3.74 1.475.911.976 1.367 2.308 1.367 3.994v.117c0 1.647-.459 2.956-1.377 3.926-.911.964-2.148 1.445-3.711 1.445-1.504 0-2.711-.449-3.623-1.347-.911-.905-1.403-2.129-1.474-3.672l-.01-.557zm3.291.205c0 .977.153 1.693.459 2.149s.758.683 1.357.683c1.172 0 1.771-.901 1.797-2.705v-.332c0-1.894-.605-2.842-1.816-2.842-1.1 0-1.696.817-1.787 2.452l-.01.595zm13.467 5.371c-1.621 0-2.933-.481-3.936-1.445-1.002-.97-1.504-2.23-1.504-3.779v-.274c0-1.08.199-2.034.596-2.861.404-.827.99-1.465 1.758-1.914.768-.456 1.679-.684 2.734-.684 1.485 0 2.656.463 3.516 1.387.859.918 1.289 2.201 1.289 3.848v1.279h-6.543c.117.592.374 1.058.771 1.396s.912.508 1.543.508c1.042 0 1.856-.364 2.442-1.094l1.504 1.778c-.411.566-.993 1.019-1.748 1.357-.749.332-1.556.498-2.422.498zm-.371-8.418c-.964 0-1.537.638-1.719 1.914h3.32v-.253c.013-.528-.12-.935-.4-1.221-.28-.293-.681-.44-1.201-.44zm11.689 5.254c0-.28-.146-.504-.439-.674s-.85-.345-1.67-.527-1.498-.42-2.032-.713c-.533-.299-.94-.661-1.22-1.084s-.42-.908-.42-1.455c0-.97.4-1.767 1.201-2.392.801-.632 1.849-.948 3.145-.948 1.393 0 2.513.316 3.359.948s1.269 1.461 1.269 2.49h-3.3c0-.847-.446-1.27-1.338-1.27-.345 0-.635.098-.869.293-.235.189-.352.427-.352.713 0 .293.143.531.43.713s.742.332 1.367.449c.631.117 1.185.257 1.66.42 1.589.547 2.383 1.527 2.383 2.94 0 .963-.43 1.748-1.289 2.353-.853.606-1.96.908-3.32.908-.905 0-1.713-.162-2.422-.488s-1.263-.768-1.661-1.328-.595-1.149-.595-1.768h3.076c.013.489.176.847.488 1.075.313.221.713.332 1.201.332.45 0 .785-.092 1.006-.274a.87.87 0 0 0 .342-.713zm-99.053 12.776v2.627h1.738v2.285h-1.738v4.834c0 .397.072.674.215.83s.426.234.85.234c.326 0 .599-.019.82-.058v2.353c-.593.189-1.211.283-1.855.283-1.133 0-1.969-.267-2.51-.8s-.811-1.345-.811-2.432v-5.244h-1.348v-2.285h1.348v-2.627h3.291zm2.334 7.812c0-1.055.205-1.992.615-2.812.41-.827.999-1.462 1.768-1.905s1.67-.664 2.705-.664c1.582 0 2.829.492 3.74 1.475.912.976 1.367 2.308 1.367 3.994v.117c0 1.647-.459 2.956-1.377 3.926-.912.964-2.148 1.445-3.711 1.445-1.504 0-2.712-.449-3.623-1.347-.912-.905-1.403-2.129-1.475-3.672l-.01-.557zm3.291.205c0 .977.153 1.693.459 2.149s.758.683 1.357.683c1.172 0 1.771-.901 1.797-2.705v-.332c0-1.894-.605-2.842-1.816-2.842-1.1 0-1.696.817-1.787 2.452l-.01.595zm17.168-8.017v2.627h1.739v2.285h-1.739v4.834c0 .397.072.674.215.83s.427.234.85.234a4.84 4.84 0 0 0 .82-.058v2.353c-.592.189-1.211.283-1.855.283-1.133 0-1.97-.267-2.51-.8s-.811-1.345-.811-2.432v-5.244h-1.347v-2.285h1.347v-2.627h3.291zm6.26 3.759c.703-.885 1.602-1.328 2.695-1.328 1.166 0 2.045.345 2.637 1.035s.895 1.709.908 3.057V182h-3.3v-6.592c0-.56-.114-.97-.342-1.23-.228-.267-.616-.401-1.162-.401-.677 0-1.156.215-1.436.645V182h-3.291v-15h3.291v5.566zm13.184 9.629c-1.621 0-2.933-.481-3.936-1.445-1.002-.97-1.504-2.23-1.504-3.779v-.274c0-1.08.199-2.034.596-2.861a4.39 4.39 0 0 1 1.758-1.914c.768-.456 1.679-.684 2.734-.684 1.484 0 2.656.463 3.516 1.387.859.918 1.289 2.201 1.289 3.848v1.279h-6.543c.117.592.374 1.058.771 1.396s.912.508 1.543.508c1.042 0 1.856-.364 2.442-1.094l1.504 1.778c-.411.566-.993 1.019-1.748 1.357-.749.332-1.556.498-2.422.498zm-.371-8.418c-.964 0-1.537.638-1.719 1.914h3.32v-.253c.013-.528-.12-.935-.4-1.221-.28-.293-.681-.44-1.201-.44zm15.136 5.586h6.797V182h-11.074v-1.807l6.777-9.765h-6.816v-2.647h11.045v1.758l-6.729 9.824zm7.578-2.744c0-1.055.205-1.992.616-2.812.41-.827.999-1.462 1.767-1.905s1.67-.664 2.705-.664c1.582 0 2.829.492 3.741 1.475.911.976 1.367 2.308 1.367 3.994v.117c0 1.647-.459 2.956-1.377 3.926-.912.964-2.149 1.445-3.711 1.445-1.504 0-2.712-.449-3.623-1.347-.912-.905-1.403-2.129-1.475-3.672l-.01-.557zm3.291.205c0 .977.153 1.693.459 2.149s.759.683 1.358.683c1.172 0 1.771-.901 1.797-2.705v-.332c0-1.894-.606-2.842-1.817-2.842-1.1 0-1.696.817-1.787 2.452l-.01.595zm7.94-.205c0-1.055.205-1.992.615-2.812.41-.827.999-1.462 1.768-1.905s1.67-.664 2.705-.664c1.582 0 2.829.492 3.74 1.475.911.976 1.367 2.308 1.367 3.994v.117c0 1.647-.459 2.956-1.377 3.926-.911.964-2.148 1.445-3.711 1.445-1.504 0-2.711-.449-3.623-1.347-.911-.905-1.403-2.129-1.474-3.672l-.01-.557zm3.291.205c0 .977.153 1.693.459 2.149s.758.683 1.357.683c1.172 0 1.771-.901 1.797-2.705v-.332c0-1.894-.605-2.842-1.816-2.842-1.1 0-1.696.817-1.787 2.452l-.01.595z" fill="#4f4f4f"/><path d="M101.203 101.203c-.647 0-1.172.525-1.172 1.172s.525 1.172 1.172 1.172 1.172-.525 1.172-1.172-.525-1.172-1.172-1.172z" fill="url(#B)"/><path d="M150.656 117.143V73.545A5.88 5.88 0 0 0 153 68.859 5.87 5.87 0 0 0 147.141 63a5.87 5.87 0 0 0-5.86 5.859 5.85 5.85 0 0 0 .664 2.697c-5.801-2.595-12.276-3.955-18.945-3.955s-13.144 1.36-18.945 3.955a5.85 5.85 0 0 0 .664-2.697A5.87 5.87 0 0 0 98.859 63 5.87 5.87 0 0 0 93 68.859a5.88 5.88 0 0 0 2.344 4.685v43.599C93.85 118.267 93 119.985 93 121.828c0 .647.525 1.16 1.172 1.16h9.366c.515.001.97-.318 1.125-.803l.001-.002 11.207-35.035a33.07 33.07 0 0 1 14.257 0l11.204 35.024.005.013c.152.477.602.804 1.116.804l9.375-.001c.647 0 1.172-.513 1.172-1.16 0-1.844-.85-3.561-2.344-4.685zM98.859 65.344a3.52 3.52 0 0 1 3.516 3.516 3.53 3.53 0 0 1-1.758 3.046c-.532.308-1.14.47-1.758.47a3.52 3.52 0 0 1-1.757-.47 3.53 3.53 0 0 1-1.758-3.046 3.52 3.52 0 0 1 3.516-3.516zm-3.316 55.312a3.52 3.52 0 0 1 3.316-2.344c1.542 0 2.84.993 3.317 2.344h-6.633zm7.929-2.439a5.76 5.76 0 0 0-1.097-1.074v-10.081a1.17 1.17 0 1 0-2.344 0v9.026a5.89 5.89 0 0 0-1.172-.119c-.395 0-.787.041-1.172.119V74.6c.384.078.777.119 1.172.119a5.86 5.86 0 0 0 1.172-.119v23.088a1.17 1.17 0 1 0 2.344 0v-3.858c3.106-2.664 6.801-4.7 10.805-5.961l-9.708 30.349zm40.153-1.074c-.437.329-.779.67-1.097 1.074l-9.709-30.349c4.005 1.261 7.7 3.297 10.806 5.961v23.314zm0-34.755a39.77 39.77 0 0 0-3.02-1.572 1.17 1.17 0 0 0-1.558.566c-.273.586-.02 1.284.567 1.558a37.53 37.53 0 0 1 4.011 2.181v5.7c-12.007-9.079-29.29-9.043-41.25 0v-5.7a37.53 37.53 0 0 1 4.011-2.181 1.17 1.17 0 0 0-.991-2.124c-1.024.478-2.034 1.004-3.02 1.572v-7.396c12.428-6.68 28.822-6.68 41.25 0v7.396zm3.516-17.044a3.52 3.52 0 0 1 3.515 3.516 3.53 3.53 0 0 1-1.757 3.046c-.533.308-1.141.47-1.758.47a3.52 3.52 0 0 1-1.757-.469 3.53 3.53 0 0 1-1.759-3.046 3.52 3.52 0 0 1 3.516-3.516zm1.171 9.256v41.488a5.88 5.88 0 0 0-1.171-.119 5.89 5.89 0 0 0-1.172.119V74.6a5.86 5.86 0 0 0 1.172.119 5.85 5.85 0 0 0 1.171-.119zm-4.488 46.056a3.52 3.52 0 0 1 3.317-2.344c1.541 0 2.839.993 3.316 2.344h-6.633z" fill="url(#C)"/><path d="M115.969 79.406h-1.859l2.687-2.687a1.17 1.17 0 0 0-.828-2.001h-4.688a1.17 1.17 0 1 0 0 2.344h1.859l-2.687 2.687a1.17 1.17 0 0 0 .828 2.001h4.688a1.17 1.17 0 1 0 0-2.344z" fill="url(#D)"/><path d="M119.484 78.234A3.52 3.52 0 0 0 123 81.75a3.52 3.52 0 0 0 3.516-3.516A3.52 3.52 0 0 0 123 74.719a3.52 3.52 0 0 0-3.516 3.516zM123 77.063c.646 0 1.172.526 1.172 1.172s-.526 1.172-1.172 1.172-1.172-.526-1.172-1.172.526-1.172 1.172-1.172z" fill="url(#E)"/><path d="M132.375 81.75a3.52 3.52 0 0 0 3.516-3.516 3.52 3.52 0 0 0-3.516-3.516 3.52 3.52 0 0 0-3.516 3.516 3.52 3.52 0 0 0 3.516 3.516zm0-4.687c.646 0 1.172.526 1.172 1.172s-.526 1.172-1.172 1.172-1.172-.526-1.172-1.172.526-1.172 1.172-1.172z" fill="url(#F)"/><path d="M123 91.828A1.17 1.17 0 0 0 121.828 93v4.688a1.17 1.17 0 1 0 2.344 0V93A1.17 1.17 0 0 0 123 91.828z" fill="url(#G)"/><path d="M123 103.547c-.647 0-1.172.525-1.172 1.172v4.687c0 .647.525 1.172 1.172 1.172s1.172-.525 1.172-1.172v-4.687c0-.647-.525-1.172-1.172-1.172z" fill="url(#H)"/><path d="M123 115.969a1.17 1.17 0 0 0-1.172 1.172v4.687c0 .647.525 1.172 1.172 1.172s1.172-.525 1.172-1.172v-4.687a1.17 1.17 0 0 0-1.172-1.172z" fill="url(#I)"/><defs><linearGradient id="A" x1="-45.746" y1="0" x2="290.544" y2="102.084" xlink:href="#J"><stop stop-color="#4bd8b5"/><stop offset="1" stop-color="#49d6df"/></linearGradient><linearGradient id="B" x1="99.594" y1="101.203" x2="102.811" y2="102.18" xlink:href="#J"><stop stop-color="#4bd8b5"/><stop offset="1" stop-color="#49d6df"/></linearGradient><linearGradient id="C" x1="81.797" y1="63" x2="164.151" y2="88.004" xlink:href="#J"><stop stop-color="#4bd8b5"/><stop offset="1" stop-color="#49d6df"/></linearGradient><linearGradient id="D" x1="108.796" y1="74.719" x2="118.448" y2="77.649" xlink:href="#J"><stop stop-color="#4bd8b5"/><stop offset="1" stop-color="#49d6df"/></linearGradient><linearGradient id="E" x1="118.172" y1="74.719" x2="127.823" y2="77.648" xlink:href="#J"><stop stop-color="#4bd8b5"/><stop offset="1" stop-color="#49d6df"/></linearGradient><linearGradient id="F" x1="127.547" y1="74.719" x2="137.198" y2="77.648" xlink:href="#J"><stop stop-color="#4bd8b5"/><stop offset="1" stop-color="#49d6df"/></linearGradient><linearGradient id="G" x1="121.391" y1="91.828" x2="124.868" y2="92.18" xlink:href="#J"><stop stop-color="#4bd8b5"/><stop offset="1" stop-color="#49d6df"/></linearGradient><linearGradient id="H" x1="121.391" y1="103.547" x2="124.868" y2="103.899" xlink:href="#J"><stop stop-color="#4bd8b5"/><stop offset="1" stop-color="#49d6df"/></linearGradient><linearGradient id="I" x1="121.391" y1="115.969" x2="124.868" y2="116.321" xlink:href="#J"><stop stop-color="#4bd8b5"/><stop offset="1" stop-color="#49d6df"/></linearGradient><linearGradient id="J" gradientUnits="userSpaceOnUse"/></defs></svg>